<?xml version="1.0" standalone="no"?>
<!DOCTYPE svg PUBLIC "-//W3C//DTD SVG 20010904//EN"
 "http://www.w3.org/TR/2001/REC-SVG-20010904/DTD/svg10.dtd">
<svg version="1.0" xmlns="http://www.w3.org/2000/svg"
 width="497.000000pt" height="497.000000pt" viewBox="0 0 497.000000 497.000000"
 preserveAspectRatio="xMidYMid meet">
<metadata>
Created by potrace 1.11, written by Peter Selinger 2001-2013
</metadata>
<g transform="translate(0.000000,497.000000) scale(0.100000,-0.100000)"
fill="#000000" stroke="none">
<path d="M625 4865 c-242 -45 -424 -219 -481 -460 -26 -113 -16 -294 24 -412
97 -287 295 -562 745 -1036 82 -87 152 -156 156 -155 3 2 32 31 64 65 l59 62
-93 118 c-140 178 -281 399 -373 583 -122 244 -176 423 -179 590 -2 170 67
240 239 240 261 0 682 -194 1082 -497 207 -157 412 -346 686 -629 l146 -152 0
-49 c0 -249 264 -461 515 -414 241 44 408 274 368 507 -34 194 -190 351 -373
372 -83 9 -177 -1 -234 -27 l-45 -20 -238 238 c-235 235 -371 356 -568 503
-580 434 -1126 643 -1500 573z"/>
<path d="M4250 4814 c-176 -27 -261 -52 -415 -124 -241 -111 -645 -380 -1013
-674 l-74 -58 57 -58 58 -58 71 52 c376 277 766 472 1065 532 172 34 329 6
366 -67 88 -169 -30 -584 -298 -1049 -200 -346 -424 -657 -690 -957 l-107
-121 -43 10 c-23 5 -77 8 -119 5 -132 -9 -259 -81 -331 -190 -103 -155 -102
-359 2 -510 98 -144 299 -217 471 -173 222 57 364 272 329 500 l-11 68 49 52
c119 123 355 415 495 611 170 238 379 588 479 802 174 371 251 725 209 954
-38 208 -170 376 -335 428 -62 19 -171 32 -215 25z"/>
<path d="M1830 3603 c-148 -17 -287 -120 -353 -261 -25 -55 -32 -83 -35 -154
-3 -49 1 -108 7 -135 l12 -46 -79 -81 c-104 -106 -331 -371 -441 -516 -332
-436 -590 -938 -668 -1300 -13 -64 -18 -128 -18 -260 0 -167 1 -179 29 -264
56 -171 158 -287 321 -365 111 -54 169 -66 310 -64 144 1 231 25 395 109 197
100 396 241 778 552 l203 166 -65 65 c-64 64 -67 66 -90 51 -14 -8 -89 -58
-168 -111 -424 -284 -795 -430 -1054 -417 -181 9 -249 85 -248 278 0 164 54
350 169 587 208 430 487 827 832 1184 l103 106 57 -9 c129 -20 291 37 379 135
93 103 138 247 117 373 -35 206 -199 360 -398 377 -33 2 -76 3 -95 0z"/>
<path d="M1760 2234 c-161 -43 -296 -197 -318 -361 -39 -288 183 -531 465
-510 43 3 100 13 126 22 l48 17 232 -228 c239 -236 400 -377 592 -519 391
-289 767 -478 1089 -547 137 -29 354 -31 441 -5 202 62 355 213 418 412 30 94
31 304 3 410 -73 274 -277 568 -717 1034 l-183 193 -52 -58 c-30 -33 -56 -66
-59 -76 -4 -11 20 -49 69 -112 337 -432 545 -876 546 -1167 0 -168 -68 -239
-232 -239 -319 0 -835 268 -1323 689 -55 47 -209 194 -343 325 -220 218 -242
242 -237 266 10 46 -13 152 -50 226 -92 188 -308 283 -515 228z"/>
</g>
</svg>
